<svg role="img" viewBox="0 0 200 200" xmlns="http://www.w3.org/2000/svg" id="Langchain--Streamline-Simple-Icons" height="200" width="200">
  <desc>
    Langchain Streamline Icon: https://streamlinehq.com
  </desc>
  <title>LangChain</title>
  <path d="M50.82333333333334 49.31250000000001C22.799166666666668 49.31250000000001 0 72.05166666666668 0 100s22.800000000000004 50.6875 50.82333333333334 50.6875h98.35333333333334C177.20083333333335 150.6875 200 127.94833333333334 200 100s-22.800000000000004 -50.6875 -50.82333333333334 -50.6875ZM49.811666666666675 65.42500000000001c4.108333333333333 0.10333333333333333 8.5 2.08 10.608333333333333 5.19 3.0608333333333335 3.826666666666667 3.981666666666667 8.89 7.453333333333334 12.443333333333335 4.670000000000001 5.098333333333334 9.991666666666667 9.587500000000002 14.300833333333333 15.016666666666667 4.076666666666667 4.961666666666668 6.988333333333334 10.780833333333335 9.530000000000001 16.645833333333336 1.0366666666666666 1.9458333333333335 1.0475 4.335 2.5833333333333335 5.9975000000000005 0.7566666666666668 1.0033333333333334 4.455 3.7358333333333333 3.6525000000000003 4.704166666666667 0.4625 1.0033333333333334 3.918333333333334 2.3833333333333333 2.7191666666666667 3.3558333333333334 -1.62 0.33333333333333337 -3.4408333333333334 0.3966666666666667 -4.680000000000001 -0.895 -0.4575 1.05 -1.5250000000000001 0.4966666666666667 -2.3491666666666666 0.36000000000000004a33.333333333333336 33.333333333333336 0 0 0 -0.20833333333333337 0.6133333333333334c-2.74 0.1825 -4.795000000000001 -2.605 -6.1000000000000005 -4.708333333333333 -2.5925000000000002 -1.4000000000000001 -5.535 -2.251666666666667 -8.183333333333334 -3.716666666666667 -0.15166666666666667 2.4125 0.37666666666666665 5.404166666666667 -1.9250000000000003 6.960833333333334 -0.11666666666666668 4.6375 7.03 0.5466666666666667 7.6850000000000005 4.003333333333334 -0.5083333333333333 0.05583333333333334 -1.0716666666666668 -0.07916666666666668 -1.4783333333333335 0.31083333333333335 -1.8658333333333335 1.81 -4.004166666666666 -1.3708333333333336 -6.154166666666668 -0.05833333333333334 -2.8866666666666667 1.45 -3.173333333333334 2.6341666666666668 -6.746666666666667 2.9333333333333336 -0.1975 -0.2991666666666667 -0.11916666666666667 -0.4933333333333334 0.04916666666666667 -0.6758333333333334 1.0058333333333334 -1.1658333333333333 1.0791666666666668 -2.5383333333333336 2.796666666666667 -3.0358333333333336 -1.7683333333333335 -0.2783333333333333 -3.249166666666667 0.6941666666666667 -4.738333333333333 1.4641666666666668 -1.9358333333333335 0.7916666666666667 -1.9200000000000002 -1.784166666666667 -4.898333333333333 0.1366666666666667 -0.33000000000000007 -0.26833333333333337 -0.17333333333333334 -0.5125000000000001 0.015000000000000001 -0.7200000000000001 0.7566666666666668 -0.9225000000000001 1.7516666666666667 -1.0583333333333333 2.875 -1.0066666666666668 -5.525 -3.0716666666666668 -8.125833333333334 3.7558333333333334 -10.677500000000002 0.36000000000000004 -0.7666666666666667 0.2025 -1.0541666666666667 0.8900000000000001 -1.5375 1.376666666666667 -0.41666666666666674 -0.4566666666666667 -0.10250000000000001 -1.01 -0.08250000000000002 -1.5475 -0.49833333333333335 -0.23333333333333336 -1.1300000000000001 -0.34166666666666673 -0.9825000000000002 -1.1383333333333334 -0.9758333333333333 -0.3291666666666667 -1.6566666666666667 0.24583333333333335 -2.3833333333333333 0.7933333333333334 -0.6558333333333334 -0.5066666666666667 0.44333333333333336 -1.2433333333333334 0.6466666666666667 -1.7708333333333335 0.5850000000000001 -1.0133333333333334 1.916666666666667 -0.20833333333333337 2.5925000000000002 -0.9383333333333335 1.9216666666666669 -1.09 4.6000000000000005 0.6783333333333333 6.795833333333334 0.3791666666666667 1.6916666666666669 0.2125 3.786666666666667 -1.5208333333333335 2.938333333333334 -3.2500000000000004 -1.8091666666666666 -2.3058333333333336 -1.4916666666666667 -5.321666666666666 -1.5325000000000002 -8.079166666666667 -0.22333333333333336 -1.6075 -4.091666666666667 -3.651666666666667 -5.21 -5.385000000000001 -1.3825 -1.5608333333333333 -2.4583333333333335 -3.3725 -3.5358333333333336 -5.151666666666666 -3.8883333333333336 -7.506666666666668 -2.665 -17.153333333333332 -7.564166666666667 -24.1225 -2.216666666666667 1.221666666666667 -5.104166666666667 0.645 -7.015000000000001 -0.9916666666666667 -1.0316666666666667 0.9375000000000001 -1.0766666666666669 2.165 -1.1583333333333334 3.4675000000000002 -2.475 -2.4683333333333337 -2.160833333333333 -7.1325 -0.18333333333333335 -9.879166666666668 0.8075000000000001 -1.0850000000000002 1.7725000000000002 -1.9775000000000003 2.8500000000000005 -2.7633333333333336 0.24333333333333335 -0.17750000000000002 0.32583333333333336 -0.3491666666666667 0.32083333333333336 -0.6225 0.9783333333333334 -4.389166666666666 4.803333333333334 -6.159166666666667 8.911666666666667 -6.055833333333334m103.39250000000001 3.833333333333334c4.645833333333334 0 9.005 1.7991666666666668 12.283333333333333 5.068333333333333s5.083333333333334 7.620833333333334 5.083333333333334 12.253333333333334c0 4.633333333333334 -1.8058333333333334 8.983333333333334 -5.083333333333334 12.248333333333335v0.005l-7.5166666666666675 7.495833333333334a17.333333333333336 17.333333333333336 0 0 1 -7.1641666666666675 4.305l-0.1366666666666667 0.03916666666666667 -0.04833333333333333 0.1366666666666667a17.083333333333332 17.083333333333332 0 0 1 -3.95 6.090000000000001l-7.515000000000001 7.495833333333334c-3.2783333333333338 3.2700000000000005 -7.6416666666666675 5.069166666666667 -12.2875 5.069166666666667s-9.005 -1.8 -12.283333333333333 -5.069166666666667c-6.775 -6.755833333333333 -6.775 -17.745 0 -24.50166666666667l7.515833333333334 -7.495833333333334a17.133333333333336 17.133333333333336 0 0 1 7.15 -4.285833333333334l0.1416666666666667 -0.04416666666666667 0.04833333333333333 -0.13166666666666668a17.25 17.25 0 0 1 3.9600000000000004 -6.114166666666668l7.515000000000001 -7.495833333333334c3.2783333333333338 -3.2700000000000005 7.642500000000001 -5.069166666666667 12.2875 -5.069166666666667zm0 7.470833333333333a9.833333333333334 9.833333333333334 0 0 0 -6.99 2.8850000000000002l-7.515000000000001 7.495833333333334a9.841666666666669 9.841666666666669 0 0 0 -2.8558333333333334 7.710000000000001l0.04416666666666667 0.4766666666666667c0.2691666666666667 2.21 1.2416666666666667 4.203333333333333 2.8116666666666665 5.764166666666667 1.0833333333333335 1.08 2.2775 1.761666666666667 3.7258333333333336 2.2383333333333337a7.500000000000001 7.500000000000001 0 0 1 0.11666666666666668 1.3183333333333336 7.366666666666667 7.366666666666667 0 0 1 -2.174166666666667 5.253333333333333l-0.46166666666666667 0.46166666666666667c-2.5108333333333337 -0.8566666666666668 -4.604166666666667 -2.1083333333333334 -6.495 -3.9933333333333336a17.166666666666668 17.166666666666668 0 0 1 -4.800833333333333 -9.14l-0.08250000000000002 -0.4816666666666667 -0.3841666666666667 0.3066666666666667a9.166666666666668 9.166666666666668 0 0 0 -0.73 0.6616666666666667l-7.5200000000000005 7.495833333333334c-3.8525 3.8416666666666672 -3.8525 10.1 0 13.941666666666668 1.9258333333333335 1.9208333333333336 4.458333333333334 2.8833333333333333 6.995000000000001 2.884166666666667 2.5358333333333336 0 5.064166666666667 -0.9633333333333334 6.99 -2.8850000000000002l7.515833333333334 -7.495833333333334c3.8525 -3.8416666666666672 3.8525 -10.094166666666668 0 -13.941666666666668a9.75 9.75 0 0 0 -3.6391666666666667 -2.2908333333333335 8.333333333333334 8.333333333333334 0 0 1 -0.11666666666666668 -1.3425c0 -2.1591666666666667 0.8525 -4.208333333333334 2.4175000000000004 -5.769166666666667 2.5158333333333336 0.8566666666666668 4.75 2.245 6.635000000000001 4.125 2.505833333333334 2.499166666666667 4.161666666666667 5.658333333333334 4.796666666666667 9.14l0.08750000000000001 0.4816666666666667 0.3791666666666667 -0.31083333333333335a9.166666666666668 9.166666666666668 0 0 0 0.7391666666666667 -0.6616666666666667l7.5166666666666675 -7.496666666666667c3.851666666666667 -3.8416666666666672 3.856666666666667 -10.103333333333333 0 -13.945833333333335a9.833333333333334 9.833333333333334 0 0 0 -6.9958333333333345 -2.8850000000000002Zm-83.10833333333335 42.972500000000004 -0.005 0.005c-0.6608333333333334 2.5650000000000004 -0.8733333333333334 6.931666666666667 -4.216666666666667 7.058333333333334 -0.275 1.4800000000000002 1.0233333333333334 2.0375 2.2125000000000004 1.5616666666666668 1.175 -0.5375000000000001 1.7341666666666669 0.42333333333333334 2.1308333333333334 1.3808333333333334 1.814166666666667 0.26416666666666666 4.495 -0.6041666666666666 4.596666666666667 -2.7483333333333335 -2.7083333333333335 -1.5558333333333334 -3.544166666666667 -4.515 -4.718333333333334 -7.2575" fill="#000000" stroke-width="8.3333"></path>
</svg>